<svg width="31" height="30" viewBox="0 0 31 30" fill="none" xmlns="http://www.w3.org/2000/svg">
<mask id="mask0_210_11252" style="mask-type:alpha" maskUnits="userSpaceOnUse" x="0" y="0" width="31" height="30">
<rect x="0.333374" width="30" height="30" fill="#D9D9D9"/>
</mask>
<g mask="url(#mask0_210_11252)">
<path d="M15.3334 26.25L13.5209 24.625C11.4167 22.7292 9.67712 21.0938 8.30212 19.7188C6.92712 18.3438 5.83337 17.1094 5.02087 16.0156C4.20837 14.9219 3.64067 13.9167 3.31775 13C2.99483 12.0833 2.83337 11.1458 2.83337 10.1875C2.83337 8.22917 3.48962 6.59375 4.80212 5.28125C6.11462 3.96875 7.75004 3.3125 9.70837 3.3125C10.7917 3.3125 11.823 3.54167 12.8021 4C13.7813 4.45833 14.625 5.10417 15.3334 5.9375C16.0417 5.10417 16.8855 4.45833 17.8646 4C18.8438 3.54167 19.875 3.3125 20.9584 3.3125C22.9167 3.3125 24.5521 3.96875 25.8646 5.28125C27.1771 6.59375 27.8334 8.22917 27.8334 10.1875C27.8334 11.1458 27.6719 12.0833 27.349 13C27.0261 13.9167 26.4584 14.9219 25.6459 16.0156C24.8334 17.1094 23.7396 18.3438 22.3646 19.7188C20.9896 21.0938 19.25 22.7292 17.1459 24.625L15.3334 26.25ZM15.3334 22.875C17.3334 21.0833 18.9792 19.5469 20.2709 18.2656C21.5625 16.9844 22.5834 15.8698 23.3334 14.9219C24.0834 13.974 24.6042 13.1302 24.8959 12.3906C25.1875 11.651 25.3334 10.9167 25.3334 10.1875C25.3334 8.9375 24.9167 7.89583 24.0834 7.0625C23.25 6.22917 22.2084 5.8125 20.9584 5.8125C19.9792 5.8125 19.073 6.08854 18.2396 6.64063C17.4063 7.19271 16.8334 7.89583 16.5209 8.75H14.1459C13.8334 7.89583 13.2605 7.19271 12.4271 6.64063C11.5938 6.08854 10.6875 5.8125 9.70837 5.8125C8.45837 5.8125 7.41671 6.22917 6.58337 7.0625C5.75004 7.89583 5.33337 8.9375 5.33337 10.1875C5.33337 10.9167 5.47921 11.651 5.77087 12.3906C6.06254 13.1302 6.58337 13.974 7.33337 14.9219C8.08337 15.8698 9.10421 16.9844 10.3959 18.2656C11.6875 19.5469 13.3334 21.0833 15.3334 22.875Z" fill="#0E9F6E"/>
</g>
</svg>
