<svg width="30" height="30" viewBox="0 0 30 30" fill="none" xmlns="http://www.w3.org/2000/svg">
<mask id="mask0_210_11265" style="mask-type:alpha" maskUnits="userSpaceOnUse" x="0" y="0" width="30" height="30">
<rect width="30" height="30" fill="#D9D9D9"/>
</mask>
<g mask="url(#mask0_210_11265)">
<path d="M16.25 18L18 16.25L15 13.25V7.5H12.5V14.25L16.25 18ZM11.5 22.2188C11.8333 21.2188 12.4219 20.3906 13.2656 19.7344C14.1094 19.0781 15.0833 18.75 16.1875 18.75H20.9375C21.4375 18.0417 21.8229 17.2656 22.0938 16.4219C22.3646 15.5781 22.5 14.6875 22.5 13.75C22.5 11.3125 21.651 9.24479 19.9531 7.54688C18.2552 5.84896 16.1875 5 13.75 5C11.3125 5 9.24479 5.84896 7.54688 7.54688C5.84896 9.24479 5 11.3125 5 13.75C5 15.7917 5.60938 17.5885 6.82812 19.1406C8.04688 20.6927 9.60417 21.7188 11.5 22.2188ZM16.25 28.75C15.0417 28.75 13.9792 28.3698 13.0625 27.6094C12.1458 26.849 11.5729 25.8958 11.3438 24.75C8.80208 24.2083 6.69271 22.9167 5.01562 20.875C3.33854 18.8333 2.5 16.4583 2.5 13.75C2.5 10.625 3.59375 7.96875 5.78125 5.78125C7.96875 3.59375 10.625 2.5 13.75 2.5C16.875 2.5 19.5312 3.59375 21.7188 5.78125C23.9062 7.96875 25 10.625 25 13.75C25 14.6458 24.901 15.5156 24.7031 16.3594C24.5052 17.2031 24.2188 18 23.8438 18.75C25.2188 18.75 26.3802 19.2396 27.3281 20.2188C28.276 21.1979 28.75 22.375 28.75 23.75C28.75 25.125 28.2604 26.3021 27.2812 27.2812C26.3021 28.2604 25.125 28.75 23.75 28.75H16.25ZM16.25 26.25H23.75C24.4375 26.25 25.026 26.0052 25.5156 25.5156C26.0052 25.026 26.25 24.4375 26.25 23.75C26.25 23.0625 26.0052 22.474 25.5156 21.9844C25.026 21.4948 24.4375 21.25 23.75 21.25H16.25C15.5625 21.25 14.974 21.4948 14.4844 21.9844C13.9948 22.474 13.75 23.0625 13.75 23.75C13.75 24.4375 13.9948 25.026 14.4844 25.5156C14.974 26.0052 15.5625 26.25 16.25 26.25ZM16.25 25C15.8958 25 15.599 24.8802 15.3594 24.6406C15.1198 24.401 15 24.1042 15 23.75C15 23.3958 15.1198 23.099 15.3594 22.8594C15.599 22.6198 15.8958 22.5 16.25 22.5C16.6042 22.5 16.901 22.6198 17.1406 22.8594C17.3802 23.099 17.5 23.3958 17.5 23.75C17.5 24.1042 17.3802 24.401 17.1406 24.6406C16.901 24.8802 16.6042 25 16.25 25ZM20 25C19.6458 25 19.349 24.8802 19.1094 24.6406C18.8698 24.401 18.75 24.1042 18.75 23.75C18.75 23.3958 18.8698 23.099 19.1094 22.8594C19.349 22.6198 19.6458 22.5 20 22.5C20.3542 22.5 20.651 22.6198 20.8906 22.8594C21.1302 23.099 21.25 23.3958 21.25 23.75C21.25 24.1042 21.1302 24.401 20.8906 24.6406C20.651 24.8802 20.3542 25 20 25ZM23.75 25C23.3958 25 23.099 24.8802 22.8594 24.6406C22.6198 24.401 22.5 24.1042 22.5 23.75C22.5 23.3958 22.6198 23.099 22.8594 22.8594C23.099 22.6198 23.3958 22.5 23.75 22.5C24.1042 22.5 24.401 22.6198 24.6406 22.8594C24.8802 23.099 25 23.3958 25 23.75C25 24.1042 24.8802 24.401 24.6406 24.6406C24.401 24.8802 24.1042 25 23.75 25Z" fill="#0E9F6E"/>
</g>
</svg>
