<svg width="31" height="30" viewBox="0 0 31 30" fill="none" xmlns="http://www.w3.org/2000/svg">
<mask id="mask0_210_11283" style="mask-type:alpha" maskUnits="userSpaceOnUse" x="0" y="0" width="31" height="30">
<rect x="0.666626" width="30" height="30" fill="#D9D9D9"/>
</mask>
<g mask="url(#mask0_210_11283)">
<path d="M27.2916 23.375L23.5416 19.625L25.2916 17.875L29.0416 21.625L27.2916 23.375ZM22.7916 8.375L21.0416 6.625L24.7916 2.875L26.5416 4.625L22.7916 8.375ZM8.54163 8.375L4.79163 4.625L6.54163 2.875L10.2916 6.625L8.54163 8.375ZM4.04163 23.375L2.29163 21.625L6.04163 17.875L7.79163 19.625L4.04163 23.375ZM11.7291 21.0312L15.6666 18.6562L19.6041 21.0625L18.5729 16.5625L22.0416 13.5625L17.4791 13.1563L15.6666 8.90625L13.8541 13.125L9.29163 13.5312L12.7604 16.5625L11.7291 21.0312ZM7.94788 26.25L9.97913 17.4688L3.16663 11.5625L12.1666 10.7812L15.6666 2.5L19.1666 10.7812L28.1666 11.5625L21.3541 17.4688L23.3854 26.25L15.6666 21.5938L7.94788 26.25Z" fill="#0E9F6E"/>
</g>
</svg>
