<svg width="24" height="24" viewBox="0 0 24 24" fill="none" xmlns="http://www.w3.org/2000/svg">
<mask id="mask0_60_17033" style="mask-type:alpha" maskUnits="userSpaceOnUse" x="0" y="0" width="24" height="24">
<rect width="24" height="24" fill="#D9D9D9"/>
</mask>
<g mask="url(#mask0_60_17033)">
<path d="M12 17C13.1 17 14.0417 16.6083 14.825 15.825C15.6083 15.0417 16 14.1 16 13H8C8 14.1 8.39167 15.0417 9.175 15.825C9.95833 16.6083 10.9 17 12 17ZM12 22C10.75 22 9.57917 21.7625 8.4875 21.2875C7.39583 20.8125 6.44583 20.1708 5.6375 19.3625C4.82917 18.5542 4.1875 17.6042 3.7125 16.5125C3.2375 15.4208 3 14.25 3 13V2H21V13C21 14.25 20.7625 15.4208 20.2875 16.5125C19.8125 17.6042 19.1708 18.5542 18.3625 19.3625C17.5542 20.1708 16.6042 20.8125 15.5125 21.2875C14.4208 21.7625 13.25 22 12 22ZM7 9H11C11 8.45 10.8042 7.97917 10.4125 7.5875C10.0208 7.19583 9.55 7 9 7C8.45 7 7.97917 7.19583 7.5875 7.5875C7.19583 7.97917 7 8.45 7 9ZM13 9H17C17 8.45 16.8042 7.97917 16.4125 7.5875C16.0208 7.19583 15.55 7 15 7C14.45 7 13.9792 7.19583 13.5875 7.5875C13.1958 7.97917 13 8.45 13 9Z" fill="#1F2A37"/>
</g>
</svg>
